<?xml version="1.0" encoding="utf-8"?>
<!DOCTYPE svg PUBLIC "-//W3C//DTD SVG 1.0//EN" "http://www.w3.org/TR/2001/REC-SVG-20010904/DTD/svg10.dtd">
<svg version="1.0" xmlns="http://www.w3.org/2000/svg" width="239px" height="141px" viewBox="0 0 239 141" preserveAspectRatio="xMidYMid meet">
 <g fill="#6232fe">
  <path d="M154.5 135.6 c-3.3 -0.6 -6.9 -1.6 -8 -2 -1.1 -0.4 -3.8 -1.5 -6 -2.3 -10.3 -3.8 -22.1 -14 -29.8 -25.6 -12.5 -18.8 -14.4 -45 -4.9 -66.7 7.8 -17.8 25.2 -32.4 44.7 -37.5 7.8 -2 25.3 -2 34.2 0.1 18.1 4.1 36.2 18.8 44.5 36.1 7.7 16.1 8.9 38.4 2.8 53.8 -6.9 17.8 -18.3 31 -33 38.3 -4.7 2.3 -10.8 4.7 -13.5 5.3 -7.3 1.6 -24.1 1.9 -31 0.5z m32.3 -12.5 c13.8 -5.1 25 -15.2 32.5 -29 2.9 -5.4 2 -6.1 -8.2 -6.1 -4.9 0 -10.2 -0.5 -11.7 -1.1 -1.6 -0.5 -6.7 -4.8 -11.6 -9.5 l-8.7 -8.4 -12.2 0 -12.1 0 -4 4 c-3.7 3.7 -4.5 4 -9.3 4 -4.3 0 -6 -0.5 -8.4 -2.6 -4.2 -3.5 -5.4 -8.3 -3.5 -13.7 2.1 -5.9 4.7 -7.7 11.8 -7.7 5.4 0 6.1 0.3 9.2 3.6 1.9 1.9 3.4 4 3.4 4.5 0 0.5 4.8 0.9 10.8 0.9 16.9 0 16.9 0 27.4 10.1 5.1 4.8 10.2 8.9 11.3 9.1 1.1 0.2 6.1 0.2 11.1 0 l9.2 -0.4 1.3 -4.6 c1.5 -5.4 0.1 -17.3 -3.1 -26.6 -5.9 -17.3 -20.2 -30.7 -39.3 -37 -6.4 -2.1 -23.1 -2.1 -30 0 -19.3 5.9 -33.9 20.2 -40.1 39.4 -3.8 11.9 -2.4 28.5 3.5 40.8 3.1 6.3 4.5 7.5 5.5 4.7 0.7 -1.8 2.4 -2 2.4 -0.3 0 0.6 1.2 2.7 2.6 4.5 1.9 2.6 2.3 3.8 1.5 4.6 -1.9 1.9 -1.2 3.2 3.7 6.8 6.9 5.2 12.9 8.3 19.7 10.3 3.3 1 6.5 2 7 2.2 0.6 0.2 6 0.2 12 -0.1 7.6 -0.3 12.6 -1 16.3 -2.4z"/>
 </g>
 <g fill="#08e2d7">
  <path d="M59.5 135.6 c-18 -3.8 -34 -14.9 -43.9 -30.4 -8 -12.6 -10.6 -21.8 -10.6 -37.1 0 -12.4 1.6 -19.4 7 -30.6 8.5 -17.3 21.5 -28.7 40.3 -35 6.5 -2.1 9.3 -2.5 19.9 -2.5 12.3 0 19 1.2 26.5 4.6 1.7 0.8 3.6 1.4 4.1 1.4 0.6 0 1.2 0.3 1.4 0.8 0.2 0.4 1.9 1.5 3.8 2.5 1.9 1 4.9 3 6.7 4.5 l3.2 2.7 -3.5 4 c-3 3.3 -3.7 3.8 -5.2 2.7 -4.9 -3.4 -14.6 -8.4 -19.7 -10.2 -4.5 -1.5 -8.4 -2 -16.9 -2 -9.8 0 -12 0.3 -19 2.9 -9.8 3.7 -13.9 6.5 -22.4 15.5 -9 9.6 -15.2 22.6 -15.2 32.4 l0 3.2 13 0 13 0 7.9 -8.2 c7.5 -7.8 7.8 -8.2 6.8 -11.3 -1.4 -4.8 2.1 -11 7.1 -12.6 10.9 -3.2 18.9 10.4 10.6 18.2 -2 1.8 -3.7 2.4 -7.6 2.5 -4.9 0 -5.1 0.1 -13.3 8.6 -9.5 9.7 -9.6 9.8 -26.7 9.8 l-10.8 0 0 3.6 c0 4.7 4.3 17.2 7.7 22.8 5.4 8.5 14.9 17.4 23 21.5 9.7 4.8 13.3 5.6 26.3 5.5 11.1 -0.1 13.2 -0.4 18.9 -2.8 3.5 -1.4 9.3 -4.5 12.9 -6.8 l6.5 -4.2 3.3 3.9 3.2 3.9 -5.1 3.9 c-14.9 11.3 -35.3 16 -53.2 12.3z"/>
  <path d="M123 104 c-2.4 -3.4 -2.2 -6 0.9 -9.9 1.7 -2.2 2.3 -2.3 5.2 -1.5 2.4 0.7 3.5 1.6 3.7 3.2 0.4 2.8 -4.3 11.2 -6.3 11.2 -0.7 0 -2.3 -1.4 -3.5 -3z"/>
 </g>
</svg>